<svg width="272" height="43" viewBox="0 0 272 43" fill="none" xmlns="http://www.w3.org/2000/svg">
<g clip-path="url(#clip0)">
<path d="M152.28 28.7H155.64V23.86H151.78V20.29H156.9V15.45H151.78V11.63H155.21V6.63004H133.21C133.62 6.07004 133.98 5.51004 134.31 4.96004L129.12 2.54004C127.633 4.77845 125.917 6.85627 124 8.74004C122.99 9.75359 121.928 10.7148 120.82 11.62L125.4 14.75C125.92 14.35 126.4 13.91 126.96 13.46V15.46H121.88V20.3H126.96V23.87H123.42V28.7H126.87C125.597 31.1825 123.948 33.4528 121.98 35.43L126.43 38.81C128.851 36.4137 130.801 33.5849 132.18 30.47L128.7 28.7H150.89L147.33 30.79C149.206 33.1987 150.859 35.7725 152.27 38.48L157.17 36.01C155.86 33.3737 154.217 30.9169 152.28 28.7ZM146.4 23.86H145V20.29H146.36L146.4 23.86ZM140.08 20.29V23.86H138.65V20.29H140.08ZM138.65 15.45V11.63H140.08V15.45H138.65ZM146.4 15.45H145V11.63H146.36L146.4 15.45ZM132.29 11.63H133.68V15.45H132.29V11.63ZM132.29 20.29H133.68V23.86H132.29V20.29Z" fill="#1D1D1B"/>
<path d="M133 30.34C133.987 32.8714 134.659 35.5146 135 38.21L140.3 37.04C139.972 34.2665 139.142 31.5759 137.85 29.1L133 30.34Z" fill="#1D1D1B"/>
<path d="M140 30.66C141.301 33.045 142.263 35.5995 142.86 38.25L148.26 36.89C147.673 34.1779 146.639 31.5824 145.2 29.21L140 30.66Z" fill="#1D1D1B"/>
<path d="M195.45 7.23H179V8.08L175.54 4.88C171.844 6.86455 167.794 8.10144 163.62 8.52001H163.45V36.94H169.24V35.08H178.11V29.4H169.24V22.79H178.11V17.42H169.24V12.77C172.628 12.1626 175.913 11.082 179 9.56001V38.81H184.86V12.67H189.55V29.4H185.73L187.73 35.4H190.61C191.859 35.4323 193.069 34.9684 193.976 34.1099C194.883 33.2515 195.413 32.0684 195.45 30.82V7.23Z" fill="#1D1D1B"/>
<path d="M225.62 30.3301C226.08 29.9001 226.57 29.4601 227.04 29.0001C228.496 27.5423 229.834 25.9707 231.04 24.3001L229.44 22.7501V7.45005H219.72V2.93005H213.41V7.45005H203.5V32.3401C202.28 32.6001 201.09 32.8501 199.91 33.0701L201.1 39.0001L202.97 38.5601C207.764 37.4499 212.47 35.9893 217.05 34.1901V30.5001C220.991 34.5679 225.86 37.6185 231.24 39.3901L234.31 34.2601C231.267 33.3013 228.35 31.9819 225.62 30.3301ZM223.19 18.8501H209.57V17.5601H223.19V18.8501ZM224.11 23.8501C223.67 24.4101 223.19 24.9901 222.68 25.5701C222.17 26.1501 221.86 26.4701 221.45 26.8901C220.591 25.9906 219.855 24.9819 219.26 23.8901L224.11 23.8501ZM223.19 12.2301V13.5401H209.57V12.2701L223.19 12.2301ZM209.57 30.8401V23.8901H212.57C213.363 25.7323 214.414 27.4528 215.69 29.0001C213.81 29.6667 211.77 30.2801 209.57 30.8401Z" fill="#1D1D1B"/>
<path d="M264.86 5.55005H244.45V20.05H264.85L264.86 5.55005ZM250.08 10.33H259.23V15.08H250.08V10.33Z" fill="#1D1D1B"/>
<path d="M238 21.77V38.82H243.63V37.61H248.09V38.82H253.72V21.82H238V21.77ZM243.63 32.77V26.77H248.09V32.77H243.63Z" fill="#1D1D1B"/>
<path d="M271.37 21.77H255.37V38.82H261.12V37.61H265.57V38.82H271.32V21.82L271.37 21.77ZM261.17 32.77V26.77H265.62V32.77H261.17Z" fill="#1D1D1B"/>
<path d="M103.36 41.53H93.58V0.0100098H103.37L103.36 41.53Z" fill="#1D1D1B"/>
<path d="M26.01 11.77L20.4 41.53H13.55L7.91 11.77V41.53L0 41.44V0.01L12.06 0L16.96 25.96L21.86 0H34.34V41.53H26.01V11.77Z" fill="#1D1D1B"/>
<path d="M64.6201 31.15C64.6201 38.32 58.78 42.48 51.62 42.48C44.46 42.48 38.62 38.32 38.62 31.15L38.55 0H48.35V31C48.35 31.8593 48.6914 32.6834 49.299 33.291C49.9066 33.8986 50.7307 34.24 51.59 34.24C52.4494 34.24 53.2735 33.8986 53.8811 33.291C54.4887 32.6834 54.8301 31.8593 54.8301 31V0H64.63L64.6201 31.15Z" fill="#1D1D1B"/>
<path d="M89.34 32.44C89.34 38.71 84.24 42.52 77.98 42.52C71.72 42.52 66.63 38.71 66.63 32.44C66.63 30.88 66.63 28.57 66.63 26.38H75.35V32.46C75.387 32.9984 75.6269 33.5027 76.0214 33.871C76.4158 34.2393 76.9353 34.4441 77.475 34.4441C78.0147 34.4441 78.5342 34.2393 78.9287 33.871C79.3231 33.5027 79.5631 32.9984 79.6 32.46V0H89.4L89.34 32.44Z" fill="#1D1D1B"/>
</g>
<defs>
<clipPath id="clip0">
<rect width="271.37" height="42.52" fill="white"/>
</clipPath>
</defs>
</svg>
